<svg xmlns="http://www.w3.org/2000/svg" xmlns:xlink="http://www.w3.org/1999/xlink" width="133px" height="169px" viewBox="-0.5 -0.5 133 169" style="background-color: rgb(255, 255, 255);">
    <defs></defs>
    <g>
        <rect x="1.01" y="5" width="130" height="161" fill="none" stroke="#000000" stroke-width="3"></rect>
        <path d="M 47 65 Q 67 45 87 65" fill="none" stroke="#000000" stroke-width="4" stroke-miterlimit="10"></path>
        <path d="M 37 55 Q 67 25 97 55" fill="none" stroke="#000000" stroke-width="5" stroke-miterlimit="10"></path>
        <path d="M 27 45 Q 67 5 107 45" fill="none" stroke="#000000" stroke-width="4" stroke-miterlimit="10"></path>
        <ellipse cx="66.5" cy="74" rx="5" ry="5" fill="#ffffff" stroke="#000000" stroke-width="4"></ellipse>
        <ellipse cx="66.01" cy="110.54" rx="11.543478260869565" ry="11.543478260869565" fill="#ffffff" stroke="#000000" stroke-width="3"></ellipse>
        <path d="M 86.53 125 L 86.53 102" fill="none" stroke="#000000" stroke-width="3" stroke-miterlimit="10"></path>
        <path d="M 92.95 125 L 92.95 102" fill="none" stroke="#000000" stroke-width="3" stroke-miterlimit="10"></path>
        <path d="M 85.1 123.5 L 94.44 123.5" fill="none" stroke="#000000" stroke-width="3" stroke-miterlimit="10"></path>
        <path d="M 79.48 103.5 L 87.17 103.5" fill="none" stroke="#000000" stroke-width="3" stroke-miterlimit="10"></path>
        <path d="M 92.3 103.5 L 100 103.5" fill="none" stroke="#000000" stroke-width="3" stroke-miterlimit="10"></path>
        <path d="M 98.5 102.5 L 98.5 96.5" fill="none" stroke="#000000" stroke-width="3" stroke-miterlimit="10"></path>
        <path d="M 81 102.5 L 81 96.5" fill="none" stroke="#000000" stroke-width="3" stroke-miterlimit="10"></path>
        <path d="M 79.48 96.5 L 100 96.5" fill="none" stroke="#000000" stroke-width="3" stroke-miterlimit="10"></path>
        <path d="M 41.64 125 L 41.64 95" fill="none" stroke="#000000" stroke-width="3" stroke-miterlimit="10"></path>
        <path d="M 48.05 125 L 48.05 95" fill="none" stroke="#000000" stroke-width="3" stroke-miterlimit="10"></path>
        <path d="M 40.14 96 L 49.56 96" fill="none" stroke="#000000" stroke-width="3" stroke-miterlimit="10"></path>
        <path d="M 40.14 124 L 49.56 124" fill="none" stroke="#000000" stroke-width="3" stroke-miterlimit="10"></path>
        <ellipse cx="66.01" cy="110.5" rx="5.13" ry="5.5" fill="#ffffff" stroke="#000000" stroke-width="3"></ellipse>
    </g>
</svg>