<svg width="9.525012mm" height="9.5207043mm" viewBox="0 0 9.525012 9.5207043">
    <g id="g3058" transform="matrix(0.06412839,0,0,0.06755322,0.04905818,0)">
      <ellipse cx="73.5" cy="70.5" rx="71.264999" ry="67.5" fill="#ffffff" stroke="#000000" stroke-width="6" id="ellipse3022" style="fill:none;stroke-dasharray:36, 12;stroke-dashoffset:0"></ellipse>
        <path d="M 40.089274,28.515638 H 105.53857 V 112.66474 H 40.089274 Z m 9.349899,9.349898 H 96.18867 M 49.439173,103.31484 H 96.18867 m 0,-42.074556 c -14.024849,-9.349899 -32.724648,-9.349899 -46.749497,0 m 42.074547,9.3499 c -9.349899,-9.3499 -28.049698,-9.3499 -37.399597,0 m 32.724648,9.349899 c -4.67495,-9.349899 -23.374749,-9.349899 -28.049698,0 m 18.699798,4.67495 c -0.0018,-6.23144 -9.351722,-6.23144 -9.349899,0 7.55e-4,2.581371 2.09358,4.67358 4.67495,4.67358 2.581369,0 4.674194,-2.092209 4.674949,-4.67358" stroke="#000000" stroke-width="3.73996" fill="none" id="path1206"></path>
    </g>
</svg>
