<svg width="30.427082mm" height="25.135418mm" viewBox="0 0 30.427082 25.135418">
  <g>
    <g class="djs-element djs-shape" data-element-id="Activity_1o8lidm" transform="matrix(0.26458333,0,0,0.26458333,1.984375,1.984375)" style="display:block" id="g149">
      <g class="djs-visual" id="g143">
        <rect x="0" y="0" width="100" height="80" rx="10" ry="10" style="fill:#ffffff;fill-opacity:0.95;stroke:#000000;stroke-width:2px" id="rect137"></rect>
        <text class="djs-label" style="font-weight:normal;font-size:12px;font-family:Arial, sans-serif;fill:#000000" id="text141">
          <tspan x="50" y="43.599998" id="tspan139"></tspan>
        </text>
        <path d="M 6.5256183,6.5256183 V 14.729999 H 47.547549 V 6.5256183 Z m 0,0 V 31.138781 H 47.547549 V 6.5256183 Z m 0,16.4087737 H 47.547549 M 20.883293,14.729999 v 16.408782 m 34.86865,-16.408782 c 8.204388,-8.2043807 16.408784,-8.2043807 24.613154,0 m -20.510965,4.102193 v 0 c 4.102199,-6.153273 12.306595,-6.153273 16.408769,0 m -12.30657,4.1022 c 0,-4.1022 8.204396,-4.1022 8.204396,0 m -6.153306,4.102194 a 2.0510985,2.0510985 0 0 0 4.102197,0 2.0510985,2.0510985 0 0 0 -4.102197,0" style="fill:none;stroke:#000000;stroke-width:1.5px" id="path135"></path>
      </g>
      <rect class="djs-hit djs-hit-all" x="0" y="0" width="100" height="80" style="fill:none;stroke:#ffffff;stroke-width:15px;stroke-opacity:0" id="rect145"></rect>
      <rect x="-6" y="-6" width="112" height="92" class="djs-outline" style="fill:none" id="rect147"></rect>
    </g>
  </g>
</svg>
