<svg width="9.5249863mm" height="13.229178mm" viewBox="0 0 9.5249863 13.229178">
    <g id="g2513" transform="matrix(0.07161644,0,0,0.08066572,0.03509206,0.04033286)">
      <rect x="1.01" y="1" width="130" height="161" fill="none" stroke="#000000" stroke-width="3" id="rect2475"></rect>
        <path d="M 47,77 Q 67,57 87,77" fill="none" stroke="#000000" stroke-width="4" stroke-miterlimit="10" id="path2477"></path>
        <path d="M 37,67 Q 67,37 97,67" fill="none" stroke="#000000" stroke-width="5" stroke-miterlimit="10" id="path2479"></path>
        <path d="m 27,57 q 40,-40 80,0" fill="none" stroke="#000000" stroke-width="4" stroke-miterlimit="10" id="path2481"></path>
        <circle cx="66.5" cy="86" fill="none" stroke="#000000" stroke-width="4" id="ellipse2483" r="5"></circle>
        <circle cx="66.010002" cy="120.54" fill="none" stroke="#000000" stroke-width="3" id="ellipse2485" r="11.543478"></circle>
        <path d="M 86.53,135 V 112" fill="none" stroke="#000000" stroke-width="3" stroke-miterlimit="10" id="path2487"></path>
        <path d="M 92.95,135 V 112" fill="none" stroke="#000000" stroke-width="3" stroke-miterlimit="10" id="path2489"></path>
        <path d="m 85.1,133.5 h 9.34" fill="none" stroke="#000000" stroke-width="3" stroke-miterlimit="10" id="path2491"></path>
        <path d="m 79.48,113.5 h 7.69" fill="none" stroke="#000000" stroke-width="3" stroke-miterlimit="10" id="path2493"></path>
        <path d="M 92.3,113.5 H 100" fill="none" stroke="#000000" stroke-width="3" stroke-miterlimit="10" id="path2495"></path>
        <path d="m 98.5,112.5 v -6" fill="none" stroke="#000000" stroke-width="3" stroke-miterlimit="10" id="path2497"></path>
        <path d="m 81,112.5 v -6" fill="none" stroke="#000000" stroke-width="3" stroke-miterlimit="10" id="path2499"></path>
        <path d="M 79.48,106.5 H 100" fill="none" stroke="#000000" stroke-width="3" stroke-miterlimit="10" id="path2501"></path>
        <path d="M 41.64,135 V 105" fill="none" stroke="#000000" stroke-width="3" stroke-miterlimit="10" id="path2503"></path>
        <path d="M 48.05,135 V 105" fill="none" stroke="#000000" stroke-width="3" stroke-miterlimit="10" id="path2505"></path>
        <path d="m 40.14,106 h 9.42" fill="none" stroke="#000000" stroke-width="3" stroke-miterlimit="10" id="path2507"></path>
        <path d="m 40.14,134 h 9.42" fill="none" stroke="#000000" stroke-width="3" stroke-miterlimit="10" id="path2509"></path>
        <ellipse cx="66.010002" cy="120.5" rx="5.1300001" ry="5.5" fill="none" stroke="#000000" stroke-width="3" id="ellipse2511"></ellipse>
    </g>
</svg>
