<svg width="133px" height="164px" viewBox="-0.5 -0.5 133 164">
    <g>
        <rect x="1.01" y="1" width="130" height="161" fill="none" stroke="#000000" stroke-width="3" pointer-events="all" />
        <path d="M 47 77 Q 67 57 87 77" fill="none" stroke="#000000" stroke-width="4" stroke-miterlimit="10" pointer-events="none" />
        <path d="M 37 67 Q 67 37 97 67" fill="none" stroke="#000000" stroke-width="5" stroke-miterlimit="10" pointer-events="none" />
        <path d="M 27 57 Q 67 17 107 57" fill="none" stroke="#000000" stroke-width="4" stroke-miterlimit="10" pointer-events="none" />
        <ellipse cx="66.5" cy="86" rx="5" ry="5" fill="none" stroke="#000000" stroke-width="4" pointer-events="none" />
        <ellipse cx="66.01" cy="120.54" rx="11.543478260869565" ry="11.543478260869565" fill="none" stroke="#000000" stroke-width="3" pointer-events="none" />
        <path d="M 86.53 135 L 86.53 112" fill="none" stroke="#000000" stroke-width="3" stroke-miterlimit="10" pointer-events="none" />
        <path d="M 92.95 135 L 92.95 112" fill="none" stroke="#000000" stroke-width="3" stroke-miterlimit="10" pointer-events="none" />
        <path d="M 85.1 133.5 L 94.44 133.5" fill="none" stroke="#000000" stroke-width="3" stroke-miterlimit="10" pointer-events="none" />
        <path d="M 79.48 113.5 L 87.17 113.5" fill="none" stroke="#000000" stroke-width="3" stroke-miterlimit="10" pointer-events="none" />
        <path d="M 92.3 113.5 L 100 113.5" fill="none" stroke="#000000" stroke-width="3" stroke-miterlimit="10" pointer-events="none" />
        <path d="M 98.5 112.5 L 98.5 106.5" fill="none" stroke="#000000" stroke-width="3" stroke-miterlimit="10" pointer-events="none" />
        <path d="M 81 112.5 L 81 106.5" fill="none" stroke="#000000" stroke-width="3" stroke-miterlimit="10" pointer-events="none" />
        <path d="M 79.48 106.5 L 100 106.5" fill="none" stroke="#000000" stroke-width="3" stroke-miterlimit="10" pointer-events="none" />
        <path d="M 41.64 135 L 41.64 105" fill="none" stroke="#000000" stroke-width="3" stroke-miterlimit="10" pointer-events="none" />
        <path d="M 48.05 135 L 48.05 105" fill="none" stroke="#000000" stroke-width="3" stroke-miterlimit="10" pointer-events="none" />
        <path d="M 40.14 106 L 49.56 106" fill="none" stroke="#000000" stroke-width="3" stroke-miterlimit="10" pointer-events="none" />
        <path d="M 40.14 134 L 49.56 134" fill="none" stroke="#000000" stroke-width="3" stroke-miterlimit="10" pointer-events="none" />
        <ellipse cx="66.01" cy="120.5" rx="5.13" ry="5.5" fill="none" stroke="#000000" stroke-width="3" pointer-events="none" />
    </g>
</svg>