<svg xmlns="http://www.w3.org/2000/svg" xmlns:xlink="http://www.w3.org/1999/xlink" width="137px" height="164px" viewBox="-0.5 -0.5 137 164" style="background-color: rgb(255, 255, 255);">
    <defs></defs>
    <g>
        <rect x="4.01" y="1" width="130" height="161" fill="none" stroke="#000000" stroke-width="3"></rect>
        <rect x="0" y="1" width="40" height="40" fill="none" stroke="none"></rect>
        <g transform="translate(-0.5 -0.5)">
            <switch>
                <text x="20" y="31" fill="#000000" font-family="Helvetica" font-size="32px" text-anchor="middle" font-weight="bold">S</text>
            </switch>
        </g>
        <path d="M 50 77 Q 70 57 90 77" fill="none" stroke="#000000" stroke-width="4" stroke-miterlimit="10"></path>
        <path d="M 40 67 Q 70 37 100 67" fill="none" stroke="#000000" stroke-width="5" stroke-miterlimit="10"></path>
        <path d="M 30 57 Q 70 17 110 57" fill="none" stroke="#000000" stroke-width="4" stroke-miterlimit="10"></path>
        <ellipse cx="69.5" cy="86" rx="5" ry="5" fill="#ffffff" stroke="#000000" stroke-width="4"></ellipse>
        <ellipse cx="69.01" cy="120.54" rx="11.543478260869565" ry="11.543478260869565" fill="#ffffff" stroke="#000000" stroke-width="3"></ellipse>
        <path d="M 89.53 135 L 89.53 112" fill="none" stroke="#000000" stroke-width="3" stroke-miterlimit="10"></path>
        <path d="M 95.95 135 L 95.95 112" fill="none" stroke="#000000" stroke-width="3" stroke-miterlimit="10"></path>
        <path d="M 88.1 133.5 L 97.44 133.5" fill="none" stroke="#000000" stroke-width="3" stroke-miterlimit="10"></path>
        <path d="M 82.48 113.5 L 90.17 113.5" fill="none" stroke="#000000" stroke-width="3" stroke-miterlimit="10"></path>
        <path d="M 95.3 113.5 L 103 113.5" fill="none" stroke="#000000" stroke-width="3" stroke-miterlimit="10"></path>
        <path d="M 101.5 112.5 L 101.5 106.5" fill="none" stroke="#000000" stroke-width="3" stroke-miterlimit="10"></path>
        <path d="M 84 112.5 L 84 106.5" fill="none" stroke="#000000" stroke-width="3" stroke-miterlimit="10"></path>
        <path d="M 82.48 106.5 L 103 106.5" fill="none" stroke="#000000" stroke-width="3" stroke-miterlimit="10"></path>
        <path d="M 44.64 135 L 44.64 105" fill="none" stroke="#000000" stroke-width="3" stroke-miterlimit="10"></path>
        <path d="M 51.05 135 L 51.05 105" fill="none" stroke="#000000" stroke-width="3" stroke-miterlimit="10"></path>
        <path d="M 43.14 106 L 52.56 106" fill="none" stroke="#000000" stroke-width="3" stroke-miterlimit="10"></path>
        <path d="M 43.14 134 L 52.56 134" fill="none" stroke="#000000" stroke-width="3" stroke-miterlimit="10"></path>
        <ellipse cx="69.01" cy="120.5" rx="5.13" ry="5.5" fill="#ffffff" stroke="#000000" stroke-width="3"></ellipse>
    </g>
    <switch>
        <g></g>
        <a transform="translate(0,-5)" xlink:href="https://www.diagrams.net/doc/faq/svg-export-text-problems">
            <text text-anchor="middle" font-size="10px" x="50%" y="100%">Viewer does not support full SVG 1.1</text>
        </a>
    </switch>
</svg>