<svg width="9.524972mm" height="13.229062mm" viewBox="0 0 9.524972 13.229062">
    <g transform="matrix(0.07161633,0,0,0.08066501,-0.03652433,-0.36299255)">
        <rect x="3.01" y="5" width="130" height="161" fill="none" stroke="#000000" stroke-width="3" id="rect134" style="fill:#42b415;fill-opacity:1"></rect>
        <g fill="#000000" font-family="Helvetica" font-weight="bold" text-anchor="middle" font-size="32px" id="g140">
            <text x="19.5" y="34.5" id="text138">S</text>
        </g>
        <path d="M 49,81 Q 69,61 89,81" fill="none" stroke="#000000" stroke-width="4" stroke-miterlimit="10" id="path142"></path>
        <path d="M 39,71 Q 69,41 99,71" fill="none" stroke="#000000" stroke-width="5" stroke-miterlimit="10" id="path144"></path>
        <path d="m 29,61 q 40,-40 80,0" fill="none" stroke="#000000" stroke-width="4" stroke-miterlimit="10" id="path146"></path>
        <circle cx="68.5" cy="90" fill="none" stroke="#000000" stroke-width="4" id="ellipse148" r="5"></circle>
        <circle cx="68.010002" cy="124.54" fill="none" stroke="#000000" stroke-width="3" id="ellipse150" r="11.543478"></circle>
        <path d="M 88.53,139 V 116" fill="none" stroke="#000000" stroke-width="3" stroke-miterlimit="10" id="path152"></path>
        <path d="M 94.95,139 V 116" fill="none" stroke="#000000" stroke-width="3" stroke-miterlimit="10" id="path154"></path>
        <path d="m 87.1,137.5 h 9.34" fill="none" stroke="#000000" stroke-width="3" stroke-miterlimit="10" id="path156"></path>
        <path d="m 81.48,117.5 h 7.69" fill="none" stroke="#000000" stroke-width="3" stroke-miterlimit="10" id="path158"></path>
        <path d="M 94.3,117.5 H 102" fill="none" stroke="#000000" stroke-width="3" stroke-miterlimit="10" id="path160"></path>
        <path d="m 100.5,116.5 v -6" fill="none" stroke="#000000" stroke-width="3" stroke-miterlimit="10" id="path162"></path>
        <path d="m 83,116.5 v -6" fill="none" stroke="#000000" stroke-width="3" stroke-miterlimit="10" id="path164"></path>
        <path d="M 81.48,110.5 H 102" fill="none" stroke="#000000" stroke-width="3" stroke-miterlimit="10" id="path166"></path>
        <path d="M 43.64,139 V 109" fill="none" stroke="#000000" stroke-width="3" stroke-miterlimit="10" id="path168"></path>
        <path d="M 50.05,139 V 109" fill="none" stroke="#000000" stroke-width="3" stroke-miterlimit="10" id="path170"></path>
        <path d="m 42.14,110 h 9.42" fill="none" stroke="#000000" stroke-width="3" stroke-miterlimit="10" id="path172"></path>
        <path d="m 42.14,138 h 9.42" fill="none" stroke="#000000" stroke-width="3" stroke-miterlimit="10" id="path174"></path>
        <ellipse cx="68.010002" cy="124.5" rx="5.1300001" ry="5.5" fill="none" stroke="#000000" stroke-width="3" id="ellipse176"></ellipse>
    </g>
</svg>
