<svg width="9.5249901mm" height="9.5250044mm" viewBox="0 0 9.5249901 9.5250044">
    <g id="g3058" transform="matrix(0.06412839,0,0,0.06755322,0.04905818,0)">
        <ellipse cx="73.5" cy="70.5" rx="71.264999" ry="67.5" fill="#ffffff" stroke="#000000" stroke-width="6" id="ellipse3022" style="fill:#42b415;fill-opacity:1"></ellipse>
        <path d="M 54,49 Q 74,29 94,49" fill="none" stroke="#000000" stroke-width="4" stroke-miterlimit="10" id="path3024"></path>
        <path d="M 44,39 Q 74,9 104,39" fill="none" stroke="#000000" stroke-width="5" stroke-miterlimit="10" id="path3026"></path>
        <circle cx="73.5" cy="58" fill="#ffffff" stroke="#000000" stroke-width="4" id="ellipse3028" r="5" style="fill:none"></circle>
        <circle cx="73.010002" cy="92.540001" fill="#ffffff" stroke="#000000" stroke-width="3" id="ellipse3030" r="11.543478" style="fill:none"></circle>
        <path d="M 93.53,107 V 84" fill="none" stroke="#000000" stroke-width="3" stroke-miterlimit="10" id="path3032"></path>
        <path d="M 99.95,107 V 84" fill="none" stroke="#000000" stroke-width="3" stroke-miterlimit="10" id="path3034"></path>
        <path d="m 92.1,105.5 h 9.34" fill="none" stroke="#000000" stroke-width="3" stroke-miterlimit="10" id="path3036"></path>
        <path d="m 86.48,85.5 h 7.69" fill="none" stroke="#000000" stroke-width="3" stroke-miterlimit="10" id="path3038"></path>
        <path d="M 99.3,85.5 H 107" fill="none" stroke="#000000" stroke-width="3" stroke-miterlimit="10" id="path3040"></path>
        <path d="m 105.5,84.5 v -6" fill="none" stroke="#000000" stroke-width="3" stroke-miterlimit="10" id="path3042"></path>
        <path d="m 88,84.5 v -6" fill="none" stroke="#000000" stroke-width="3" stroke-miterlimit="10" id="path3044"></path>
        <path d="M 86.48,78.5 H 107" fill="none" stroke="#000000" stroke-width="3" stroke-miterlimit="10" id="path3046"></path>
        <path d="M 48.64,107 V 77" fill="none" stroke="#000000" stroke-width="3" stroke-miterlimit="10" id="path3048"></path>
        <path d="M 55.05,107 V 77" fill="none" stroke="#000000" stroke-width="3" stroke-miterlimit="10" id="path3050"></path>
        <path d="m 47.14,78 h 9.42" fill="none" stroke="#000000" stroke-width="3" stroke-miterlimit="10" id="path3052"></path>
        <path d="m 47.14,106 h 9.42" fill="none" stroke="#000000" stroke-width="3" stroke-miterlimit="10" id="path3054"></path>
        <ellipse cx="73.010002" cy="92.5" rx="5.1300001" ry="5.5" fill="#ffffff" stroke="#000000" stroke-width="3" id="ellipse3056" style="fill:none"></ellipse>
    </g>
</svg>
