<svg xmlns="http://www.w3.org/2000/svg" xmlns:xlink="http://www.w3.org/1999/xlink" version="1.1" width="136px" height="164px" viewBox="-0.5 -0.5 136 164">
    <defs>
        <style type="text/css">@import url(https://fonts.googleapis.com/css?family=Londrina+Solid);
            @import url(https://fonts.googleapis.com/css?family=Londrina+Outline);
        </style>
    </defs>
    <g>
        <rect x="3.01" y="1" width="130" height="161" fill="#ff8800" stroke="#000000" stroke-width="3"></rect>
        <rect x="0" y="0" width="40" height="40" fill="none" stroke="none"></rect>
        <g fill="#000000" font-family="Helvetica" font-weight="bold" text-anchor="middle" font-size="32px">
            <text x="19.5" y="34.5">A</text>
        </g>
        <path d="M 49 81 Q 69 61 89 81" fill="none" stroke="#000000" stroke-width="4" stroke-miterlimit="10"></path>
        <path d="M 39 71 Q 69 41 99 71" fill="none" stroke="#000000" stroke-width="5" stroke-miterlimit="10"></path>
        <path d="M 29 61 Q 69 21 109 61" fill="none" stroke="#000000" stroke-width="4" stroke-miterlimit="10"></path>
        <ellipse cx="68.5" cy="90" rx="5" ry="5" fill="none" stroke="#000000" stroke-width="4"></ellipse>
        <ellipse cx="68.01" cy="124.54" rx="11.543478260869566" ry="11.543478260869566" fill="none" stroke="#000000" stroke-width="3"></ellipse>
        <path d="M 88.53 139 L 88.53 116" fill="none" stroke="#000000" stroke-width="3" stroke-miterlimit="10"></path>
        <path d="M 94.95 139 L 94.95 116" fill="none" stroke="#000000" stroke-width="3" stroke-miterlimit="10"></path>
        <path d="M 87.1 137.5 L 96.44 137.5" fill="none" stroke="#000000" stroke-width="3" stroke-miterlimit="10"></path>
        <path d="M 81.48 117.5 L 89.17 117.5" fill="none" stroke="#000000" stroke-width="3" stroke-miterlimit="10"></path>
        <path d="M 94.3 117.5 L 102 117.5" fill="none" stroke="#000000" stroke-width="3" stroke-miterlimit="10"></path>
        <path d="M 100.5 116.5 L 100.5 110.5" fill="none" stroke="#000000" stroke-width="3" stroke-miterlimit="10"></path>
        <path d="M 83 116.5 L 83 110.5" fill="none" stroke="#000000" stroke-width="3" stroke-miterlimit="10"></path>
        <path d="M 81.48 110.5 L 102 110.5" fill="none" stroke="#000000" stroke-width="3" stroke-miterlimit="10"></path>
        <path d="M 43.64 139 L 43.64 109" fill="none" stroke="#000000" stroke-width="3" stroke-miterlimit="10"></path>
        <path d="M 50.05 139 L 50.05 109" fill="none" stroke="#000000" stroke-width="3" stroke-miterlimit="10"></path>
        <path d="M 42.14 110 L 51.56 110" fill="none" stroke="#000000" stroke-width="3" stroke-miterlimit="10"></path>
        <path d="M 42.14 138 L 51.56 138" fill="none" stroke="#000000" stroke-width="3" stroke-miterlimit="10"></path>
        <ellipse cx="68.01" cy="124.5" rx="5.13" ry="5.5" fill="none" stroke="#000000" stroke-width="3"></ellipse>
    </g>
</svg>
