<svg xmlns="http://www.w3.org/2000/svg" xmlns:xlink="http://www.w3.org/1999/xlink" version="1.1" width="173px" height="218px" viewBox="-0.5 -0.5 173 218">
    <defs></defs>
    <g>
        <rect x="3.01" y="10" width="166.99" height="205" fill="#ff8800" stroke="rgb(0, 0, 0)" stroke-width="4"></rect>
        <rect x="0" y="0" width="40" height="50" fill="none" stroke="none"></rect>
        <g fill="rgb(0, 0, 0)" font-family="Helvetica" font-weight="bold" text-anchor="middle" font-size="40px">
            <text x="19.5" y="43.5">S</text>
        </g>
        <ellipse cx="86.5" cy="114.13" rx="71" ry="69.125" fill="none" stroke="rgb(0, 0, 0)" stroke-width="6"></ellipse>
        <ellipse cx="86.02" cy="114.12" rx="55.635" ry="55.25" fill="none" stroke="rgb(0, 0, 0)" stroke-width="6"></ellipse>
        <path d="M 67 98.37 Q 87 78.37 107 98.37" fill="none" stroke="rgb(0, 0, 0)" stroke-width="4" stroke-miterlimit="10"></path>
        <path d="M 57 88.37 Q 87 58.37 117 88.37" fill="none" stroke="rgb(0, 0, 0)" stroke-width="5" stroke-miterlimit="10"></path>
        <ellipse cx="86.5" cy="107.37" rx="5" ry="5" fill="none" stroke="rgb(0, 0, 0)" stroke-width="4"></ellipse>
        <ellipse cx="86.01" cy="133.54" rx="11.543478260869565" ry="11.543478260869565" fill="none" stroke="rgb(0, 0, 0)" stroke-width="3"></ellipse>
        <path d="M 106.53 148 L 106.53 125" fill="none" stroke="rgb(0, 0, 0)" stroke-width="3" stroke-miterlimit="10"></path>
        <path d="M 112.95 148 L 112.95 125" fill="none" stroke="rgb(0, 0, 0)" stroke-width="3" stroke-miterlimit="10"></path>
        <path d="M 105.1 146.5 L 114.44 146.5" fill="none" stroke="rgb(0, 0, 0)" stroke-width="3" stroke-miterlimit="10"></path>
        <path d="M 99.48 126.5 L 107.17 126.5" fill="none" stroke="rgb(0, 0, 0)" stroke-width="3" stroke-miterlimit="10"></path>
        <path d="M 112.3 126.5 L 120 126.5" fill="none" stroke="rgb(0, 0, 0)" stroke-width="3" stroke-miterlimit="10"></path>
        <path d="M 118.5 125.5 L 118.5 119.5" fill="none" stroke="rgb(0, 0, 0)" stroke-width="3" stroke-miterlimit="10"></path>
        <path d="M 101 125.5 L 101 119.5" fill="none" stroke="rgb(0, 0, 0)" stroke-width="3" stroke-miterlimit="10"></path>
        <path d="M 99.48 119.5 L 120 119.5" fill="none" stroke="rgb(0, 0, 0)" stroke-width="3" stroke-miterlimit="10"></path>
        <path d="M 61.64 148 L 61.64 118" fill="none" stroke="rgb(0, 0, 0)" stroke-width="3" stroke-miterlimit="10"></path>
        <path d="M 68.05 148 L 68.05 118" fill="none" stroke="rgb(0, 0, 0)" stroke-width="3" stroke-miterlimit="10"></path>
        <path d="M 60.14 119 L 69.56 119" fill="none" stroke="rgb(0, 0, 0)" stroke-width="3" stroke-miterlimit="10"></path>
        <path d="M 60.14 147 L 69.56 147" fill="none" stroke="rgb(0, 0, 0)" stroke-width="3" stroke-miterlimit="10"></path>
        <ellipse cx="86.01" cy="133.5" rx="5.13" ry="5.5" fill="none" stroke="rgb(0, 0, 0)" stroke-width="3"></ellipse>
    </g>
</svg>
