<svg xmlns="http://www.w3.org/2000/svg" xmlns:xlink="http://www.w3.org/1999/xlink" version="1.1" width="173px" height="211px" viewBox="-0.5 -0.5 173 211">
    <defs></defs>
    <g>
        <rect x="3.01" y="2" width="166.99" height="205" fill="#ff8800" stroke="#000000" stroke-width="4"></rect>
        <rect x="0" y="2" width="40" height="50" fill="none" stroke="none"></rect>
        <g fill="#000000" font-family="Helvetica" font-weight="bold" text-anchor="middle" font-size="39.99999999999999px">
            <text x="19.5" y="45.5">S</text>
        </g>
        <ellipse cx="86.5" cy="103.12" rx="70.99999999999999" ry="69.12499999999999" fill="none" stroke="#000000" stroke-width="6"></ellipse>
        <ellipse cx="86.01" cy="103.12" rx="55.63499999999999" ry="55.24999999999999" fill="none" stroke="#000000" stroke-width="6"></ellipse>
        <path d="M 67 87.37 Q 87 67.37 107 87.37" fill="none" stroke="#000000" stroke-width="4" stroke-miterlimit="10"></path>
        <path d="M 57 77.37 Q 87 47.37 117 77.37" fill="none" stroke="#000000" stroke-width="5" stroke-miterlimit="10"></path>
        <ellipse cx="86.5" cy="96.37" rx="4.999999999999999" ry="4.999999999999999" fill="none" stroke="#000000" stroke-width="4"></ellipse>
        <ellipse cx="86.01" cy="122.54" rx="11.543478260869563" ry="11.543478260869563" fill="none" stroke="#000000" stroke-width="3"></ellipse>
        <path d="M 106.53 137 L 106.53 114" fill="none" stroke="#000000" stroke-width="3" stroke-miterlimit="10"></path>
        <path d="M 112.95 137 L 112.95 114" fill="none" stroke="#000000" stroke-width="3" stroke-miterlimit="10"></path>
        <path d="M 105.1 135.5 L 114.44 135.5" fill="none" stroke="#000000" stroke-width="3" stroke-miterlimit="10"></path>
        <path d="M 99.48 115.5 L 107.17 115.5" fill="none" stroke="#000000" stroke-width="3" stroke-miterlimit="10"></path>
        <path d="M 112.3 115.5 L 120 115.5" fill="none" stroke="#000000" stroke-width="3" stroke-miterlimit="10"></path>
        <path d="M 118.5 114.5 L 118.5 108.5" fill="none" stroke="#000000" stroke-width="3" stroke-miterlimit="10"></path>
        <path d="M 101 114.5 L 101 108.5" fill="none" stroke="#000000" stroke-width="3" stroke-miterlimit="10"></path>
        <path d="M 99.48 108.5 L 120 108.5" fill="none" stroke="#000000" stroke-width="3" stroke-miterlimit="10"></path>
        <path d="M 61.64 137 L 61.64 107" fill="none" stroke="#000000" stroke-width="3" stroke-miterlimit="10"></path>
        <path d="M 68.05 137 L 68.05 107" fill="none" stroke="#000000" stroke-width="3" stroke-miterlimit="10"></path>
        <path d="M 60.14 108 L 69.56 108" fill="none" stroke="#000000" stroke-width="3" stroke-miterlimit="10"></path>
        <path d="M 60.14 136 L 69.56 136" fill="none" stroke="#000000" stroke-width="3" stroke-miterlimit="10"></path>
        <ellipse cx="86.01" cy="122.5" rx="5.129999999999999" ry="5.499999999999999" fill="none" stroke="#000000" stroke-width="3"></ellipse>
        <rect x="74.51" y="183" width="24" height="24" fill="none" stroke="#000000" stroke-width="3"></rect>
        <g transform="translate(-0.5 -0.5)scale(0.9999999999999999)">
            <switch>
                <text x="87" y="203" fill="#000000" font-family="Helvetica" font-size="26px" text-anchor="middle" font-weight="bold">+</text>
            </switch>
        </g>
    </g>
</svg>
