<svg xmlns="http://www.w3.org/2000/svg" xmlns:xlink="http://www.w3.org/1999/xlink" version="1.1" width="149px" height="141px" viewBox="-0.5 -0.5 149 141">
    <defs></defs>
    <g>
        <ellipse cx="73.5" cy="70.5" rx="71.265" ry="67.5" fill="#ff8800" stroke="rgb(0, 0, 0)" stroke-width="6"></ellipse>
        <path d="M 54 49 Q 74 29 94 49" fill="none" stroke="rgb(0, 0, 0)" stroke-width="4" stroke-miterlimit="10"></path>
        <path d="M 44 39 Q 74 9 104 39" fill="none" stroke="rgb(0, 0, 0)" stroke-width="5" stroke-miterlimit="10"></path>
        <ellipse cx="73.5" cy="58" rx="5" ry="5" fill="none" stroke="rgb(0, 0, 0)" stroke-width="4"></ellipse>
        <ellipse cx="73.01" cy="92.54" rx="11.543478260869565" ry="11.543478260869565" fill="none" stroke="rgb(0, 0, 0)" stroke-width="3"></ellipse>
        <path d="M 93.53 107 L 93.53 84" fill="none" stroke="rgb(0, 0, 0)" stroke-width="3" stroke-miterlimit="10"></path>
        <path d="M 99.95 107 L 99.95 84" fill="none" stroke="rgb(0, 0, 0)" stroke-width="3" stroke-miterlimit="10"></path>
        <path d="M 92.1 105.5 L 101.44 105.5" fill="none" stroke="rgb(0, 0, 0)" stroke-width="3" stroke-miterlimit="10"></path>
        <path d="M 86.48 85.5 L 94.17 85.5" fill="none" stroke="rgb(0, 0, 0)" stroke-width="3" stroke-miterlimit="10"></path>
        <path d="M 99.3 85.5 L 107 85.5" fill="none" stroke="rgb(0, 0, 0)" stroke-width="3" stroke-miterlimit="10"></path>
        <path d="M 105.5 84.5 L 105.5 78.5" fill="none" stroke="rgb(0, 0, 0)" stroke-width="3" stroke-miterlimit="10"></path>
        <path d="M 88 84.5 L 88 78.5" fill="none" stroke="rgb(0, 0, 0)" stroke-width="3" stroke-miterlimit="10"></path>
        <path d="M 86.48 78.5 L 107 78.5" fill="none" stroke="rgb(0, 0, 0)" stroke-width="3" stroke-miterlimit="10"></path>
        <path d="M 48.64 107 L 48.64 77" fill="none" stroke="rgb(0, 0, 0)" stroke-width="3" stroke-miterlimit="10"></path>
        <path d="M 55.05 107 L 55.05 77" fill="none" stroke="rgb(0, 0, 0)" stroke-width="3" stroke-miterlimit="10"></path>
        <path d="M 47.14 78 L 56.56 78" fill="none" stroke="rgb(0, 0, 0)" stroke-width="3" stroke-miterlimit="10"></path>
        <path d="M 47.14 106 L 56.56 106" fill="none" stroke="rgb(0, 0, 0)" stroke-width="3" stroke-miterlimit="10"></path>
        <ellipse cx="73.01" cy="92.5" rx="5.13" ry="5.5" fill="none" stroke="rgb(0, 0, 0)" stroke-width="3"></ellipse>
    </g>
</svg>
