<svg xmlns="http://www.w3.org/2000/svg" xmlns:xlink="http://www.w3.org/1999/xlink" version="1.1" width="135px" height="169px" viewBox="-0.5 -0.5 135 169">
    <defs></defs>
    <g>
        <rect x="2.01" y="6" width="130" height="161" fill="#f53d33" stroke="#000000" stroke-width="3"></rect>
        <rect x="0" y="0" width="40" height="40" fill="none" stroke="none"></rect>
        <g fill="#000000" font-family="Helvetica" font-weight="bold" text-anchor="middle" font-size="32px">
            <text x="19.5" y="34.5">A</text>
        </g>
        <path d="M 48 82 Q 68 62 88 82" fill="none" stroke="#000000" stroke-width="4" stroke-miterlimit="10"></path>
        <path d="M 38 72 Q 68 42 98 72" fill="none" stroke="#000000" stroke-width="5" stroke-miterlimit="10"></path>
        <path d="M 28 62 Q 68 22 108 62" fill="none" stroke="#000000" stroke-width="4" stroke-miterlimit="10"></path>
        <ellipse cx="67.5" cy="91" rx="5" ry="5" fill="none" stroke="#000000" stroke-width="4"></ellipse>
        <ellipse cx="67.01" cy="125.54" rx="11.543478260869565" ry="11.543478260869565" fill="none" stroke="#000000" stroke-width="3"></ellipse>
        <path d="M 87.53 140 L 87.53 117" fill="none" stroke="#000000" stroke-width="3" stroke-miterlimit="10"></path>
        <path d="M 93.95 140 L 93.95 117" fill="none" stroke="#000000" stroke-width="3" stroke-miterlimit="10"></path>
        <path d="M 86.1 138.5 L 95.44 138.5" fill="none" stroke="#000000" stroke-width="3" stroke-miterlimit="10"></path>
        <path d="M 80.48 118.5 L 88.17 118.5" fill="none" stroke="#000000" stroke-width="3" stroke-miterlimit="10"></path>
        <path d="M 93.3 118.5 L 101 118.5" fill="none" stroke="#000000" stroke-width="3" stroke-miterlimit="10"></path>
        <path d="M 99.5 117.5 L 99.5 111.5" fill="none" stroke="#000000" stroke-width="3" stroke-miterlimit="10"></path>
        <path d="M 82 117.5 L 82 111.5" fill="none" stroke="#000000" stroke-width="3" stroke-miterlimit="10"></path>
        <path d="M 80.48 111.5 L 101 111.5" fill="none" stroke="#000000" stroke-width="3" stroke-miterlimit="10"></path>
        <path d="M 42.64 140 L 42.64 110" fill="none" stroke="#000000" stroke-width="3" stroke-miterlimit="10"></path>
        <path d="M 49.05 140 L 49.05 110" fill="none" stroke="#000000" stroke-width="3" stroke-miterlimit="10"></path>
        <path d="M 41.14 111 L 50.56 111" fill="none" stroke="#000000" stroke-width="3" stroke-miterlimit="10"></path>
        <path d="M 41.14 139 L 50.56 139" fill="none" stroke="#000000" stroke-width="3" stroke-miterlimit="10"></path>
        <ellipse cx="67.01" cy="125.5" rx="5.13" ry="5.5" fill="none" stroke="#000000" stroke-width="3"></ellipse>
    </g>
</svg>
