<svg xmlns="http://www.w3.org/2000/svg" xmlns:xlink="http://www.w3.org/1999/xlink" version="1.1" width="173px" height="220px" viewBox="-0.5 -0.5 173 220">
    <defs></defs>
    <g>
        <rect x="3.01" y="10" width="166.99" height="205" fill="#f53d33" stroke="#000000" stroke-width="4"></rect>
        <rect x="0" y="0" width="40" height="50" fill="none" stroke="none"></rect>
        <g fill="#000000" font-family="Helvetica" font-weight="bold" text-anchor="middle" font-size="40px">
            <text x="19.5" y="43.5">S</text>
        </g>
        <ellipse cx="86.5" cy="111.13" rx="71" ry="69.125" fill="none" stroke="#000000" stroke-width="6"></ellipse>
        <ellipse cx="86.01" cy="111.12" rx="55.635" ry="55.25" fill="none" stroke="#000000" stroke-width="6"></ellipse>
        <path d="M 67 95.37 Q 87 75.37 107 95.37" fill="none" stroke="#000000" stroke-width="4" stroke-miterlimit="10"></path>
        <path d="M 57 85.37 Q 87 55.37 117 85.37" fill="none" stroke="#000000" stroke-width="5" stroke-miterlimit="10"></path>
        <ellipse cx="86.5" cy="104.37" rx="5" ry="5" fill="none" stroke="#000000" stroke-width="4"></ellipse>
        <ellipse cx="86.01" cy="130.54" rx="11.543478260869565" ry="11.543478260869565" fill="none" stroke="#000000" stroke-width="3"></ellipse>
        <path d="M 106.53 145 L 106.53 122" fill="none" stroke="#000000" stroke-width="3" stroke-miterlimit="10"></path>
        <path d="M 112.95 145 L 112.95 122" fill="none" stroke="#000000" stroke-width="3" stroke-miterlimit="10"></path>
        <path d="M 105.1 143.5 L 114.44 143.5" fill="none" stroke="#000000" stroke-width="3" stroke-miterlimit="10"></path>
        <path d="M 99.48 123.5 L 107.17 123.5" fill="none" stroke="#000000" stroke-width="3" stroke-miterlimit="10"></path>
        <path d="M 112.3 123.5 L 120 123.5" fill="none" stroke="#000000" stroke-width="3" stroke-miterlimit="10"></path>
        <path d="M 118.5 122.5 L 118.5 116.5" fill="none" stroke="#000000" stroke-width="3" stroke-miterlimit="10"></path>
        <path d="M 101 122.5 L 101 116.5" fill="none" stroke="#000000" stroke-width="3" stroke-miterlimit="10"></path>
        <path d="M 99.48 116.5 L 120 116.5" fill="none" stroke="#000000" stroke-width="3" stroke-miterlimit="10"></path>
        <path d="M 61.64 145 L 61.64 115" fill="none" stroke="#000000" stroke-width="3" stroke-miterlimit="10"></path>
        <path d="M 68.05 145 L 68.05 115" fill="none" stroke="#000000" stroke-width="3" stroke-miterlimit="10"></path>
        <path d="M 60.14 116 L 69.56 116" fill="none" stroke="#000000" stroke-width="3" stroke-miterlimit="10"></path>
        <path d="M 60.14 144 L 69.56 144" fill="none" stroke="#000000" stroke-width="3" stroke-miterlimit="10"></path>
        <ellipse cx="86.01" cy="130.5" rx="5.13" ry="5.5" fill="none" stroke="#000000" stroke-width="3"></ellipse>
        <rect x="74.51" y="191" width="24" height="24" fill="none" stroke="#000000" stroke-width="3"></rect>
        <g transform="translate(-0.5 -0.5)">
            <switch>
                <text x="87" y="211" fill="#000000" font-family="Helvetica" font-size="26px" text-anchor="middle" font-weight="bold">+</text>
            </switch>
        </g>
    </g>
</svg>
