<svg xmlns="http://www.w3.org/2000/svg" xmlns:xlink="http://www.w3.org/1999/xlink" version="1.1" width="177px" height="170px" viewBox="-0.5 -0.5 177 170">
    <defs></defs>
    <g>
        <ellipse cx="87.62" cy="85" rx="85.385" ry="82" fill="#f53d33" stroke="#000000" stroke-width="6"></ellipse>
        <ellipse cx="87.5" cy="85.5" rx="71.265" ry="67.5" fill="#f53d33" stroke="#000000" stroke-width="6"></ellipse>
        <path d="M 68 64 Q 88 44 108 64" fill="none" stroke="#000000" stroke-width="4" stroke-miterlimit="10"></path>
        <path d="M 58 54 Q 88 24 118 54" fill="none" stroke="#000000" stroke-width="5" stroke-miterlimit="10"></path>
        <ellipse cx="87.5" cy="73" rx="5" ry="5" fill="none" stroke="#000000" stroke-width="4"></ellipse>
        <ellipse cx="87.01" cy="107.54" rx="11.543478260869565" ry="11.543478260869565" fill="none" stroke="#000000" stroke-width="3"></ellipse>
        <path d="M 107.53 122 L 107.53 99" fill="none" stroke="#000000" stroke-width="3" stroke-miterlimit="10"></path>
        <path d="M 113.95 122 L 113.95 99" fill="none" stroke="#000000" stroke-width="3" stroke-miterlimit="10"></path>
        <path d="M 106.1 120.5 L 115.44 120.5" fill="none" stroke="#000000" stroke-width="3" stroke-miterlimit="10"></path>
        <path d="M 100.48 100.5 L 108.17 100.5" fill="none" stroke="#000000" stroke-width="3" stroke-miterlimit="10"></path>
        <path d="M 113.3 100.5 L 121 100.5" fill="none" stroke="#000000" stroke-width="3" stroke-miterlimit="10"></path>
        <path d="M 119.5 99.5 L 119.5 93.5" fill="none" stroke="#000000" stroke-width="3" stroke-miterlimit="10"></path>
        <path d="M 102 99.5 L 102 93.5" fill="none" stroke="#000000" stroke-width="3" stroke-miterlimit="10"></path>
        <path d="M 100.48 93.5 L 121 93.5" fill="none" stroke="#000000" stroke-width="3" stroke-miterlimit="10"></path>
        <path d="M 62.64 122 L 62.64 92" fill="none" stroke="#000000" stroke-width="3" stroke-miterlimit="10"></path>
        <path d="M 69.05 122 L 69.05 92" fill="none" stroke="#000000" stroke-width="3" stroke-miterlimit="10"></path>
        <path d="M 61.14 93 L 70.56 93" fill="none" stroke="#000000" stroke-width="3" stroke-miterlimit="10"></path>
        <path d="M 61.14 121 L 70.56 121" fill="none" stroke="#000000" stroke-width="3" stroke-miterlimit="10"></path>
        <ellipse cx="87.01" cy="107.5" rx="5.13" ry="5.5" fill="none" stroke="#000000" stroke-width="3"></ellipse>
    </g>
</svg>
