<svg xmlns="http://www.w3.org/2000/svg" xmlns:xlink="http://www.w3.org/1999/xlink" version="1.1" width="155px" height="147px" viewBox="-0.5 -0.5 155 147">
    <defs></defs>
    <g>
        <ellipse cx="76.5" cy="73.5" rx="71.265" ry="67.5" fill="#f53d33" stroke="#000000" stroke-width="12"></ellipse>
        <path d="M 57 52 Q 77 32 97 52" fill="none" stroke="#000000" stroke-width="4" stroke-miterlimit="10"></path>
        <path d="M 47 42 Q 77 12 107 42" fill="none" stroke="#000000" stroke-width="5" stroke-miterlimit="10"></path>
        <ellipse cx="76.5" cy="61" rx="5" ry="5" fill="none" stroke="#000000" stroke-width="4"></ellipse>
        <ellipse cx="76.01" cy="95.54" rx="11.543478260869565" ry="11.543478260869565" fill="none" stroke="#000000" stroke-width="3"></ellipse>
        <path d="M 96.53 110 L 96.53 87" fill="none" stroke="#000000" stroke-width="3" stroke-miterlimit="10"></path>
        <path d="M 102.95 110 L 102.95 87" fill="none" stroke="#000000" stroke-width="3" stroke-miterlimit="10"></path>
        <path d="M 95.1 108.5 L 104.44 108.5" fill="none" stroke="#000000" stroke-width="3" stroke-miterlimit="10"></path>
        <path d="M 89.48 88.5 L 97.17 88.5" fill="none" stroke="#000000" stroke-width="3" stroke-miterlimit="10"></path>
        <path d="M 102.3 88.5 L 110 88.5" fill="none" stroke="#000000" stroke-width="3" stroke-miterlimit="10"></path>
        <path d="M 108.5 87.5 L 108.5 81.5" fill="none" stroke="#000000" stroke-width="3" stroke-miterlimit="10"></path>
        <path d="M 91 87.5 L 91 81.5" fill="none" stroke="#000000" stroke-width="3" stroke-miterlimit="10"></path>
        <path d="M 89.48 81.5 L 110 81.5" fill="none" stroke="#000000" stroke-width="3" stroke-miterlimit="10"></path>
        <path d="M 51.64 110 L 51.64 80" fill="none" stroke="#000000" stroke-width="3" stroke-miterlimit="10"></path>
        <path d="M 58.05 110 L 58.05 80" fill="none" stroke="#000000" stroke-width="3" stroke-miterlimit="10"></path>
        <path d="M 50.14 81 L 59.56 81" fill="none" stroke="#000000" stroke-width="3" stroke-miterlimit="10"></path>
        <path d="M 50.14 109 L 59.56 109" fill="none" stroke="#000000" stroke-width="3" stroke-miterlimit="10"></path>
        <ellipse cx="76.01" cy="95.5" rx="5.13" ry="5.5" fill="none" stroke="#000000" stroke-width="3"></ellipse>
    </g>
</svg>
