<svg width="11.335974mm" height="11.484068mm" viewBox="0 0 11.335974 11.484068">
    <g id="g3058" transform="matrix(0.06412839,0,0,0.06755322,0.04905818,0)">
      <ellipse cx="87.620003" cy="85" rx="85.385002" ry="82" fill="#ffffff" stroke="#000000" stroke-width="6" id="ellipse1419" style="fill:none;stroke-dasharray:48, 6;stroke-dashoffset:0"></ellipse>
        <ellipse cx="87.5" cy="85.5" rx="71.264999" ry="67.5" fill="#ffffff" stroke="#000000" stroke-width="6" id="ellipse1421" style="fill:none;stroke-dasharray:48, 6;stroke-dashoffset:0"></ellipse>
        <path d="M 51.183897,39.530559 H 122.89889 V 131.73552 H 51.183897 Z m 10.245,10.244999 H 112.6539 M 61.428897,121.49052 H 112.6539 m 0,-46.102461 c -15.367503,-10.245 -35.857502,-10.245 -51.225003,0 M 107.5314,85.63306 c -10.245003,-10.245001 -30.735002,-10.245001 -40.980002,0 m 35.857512,10.245 c -5.122513,-10.245 -25.612512,-10.245 -30.735012,0 m 20.49,5.1225 c -0.002,-6.827999 -10.246997,-6.827999 -10.245,0 8.28e-4,2.82848 2.294007,5.12099 5.122501,5.12099 2.828493,0 5.121672,-2.29251 5.122499,-5.12099" stroke="#000000" stroke-width="4.098" fill="none" id="path1206"></path>
    </g>
</svg>
